<?xml version="1.0" encoding="iso-8859-1"?>
<!-- Generator: Adobe Illustrator 19.0.0, SVG Export Plug-In . SVG Version: 6.00 Build 0)  -->
<svg version="1.1" id="Capa_1" xmlns="http://www.w3.org/2000/svg" xmlns:xlink="http://www.w3.org/1999/xlink" x="0px" y="0px"
	 viewBox="0 0 512 512" style="enable-background:new 0 0 512 512;" xml:space="preserve">
<polygon style="fill:#DC691D;" points="317.793,79.448 194.207,79.448 17.655,79.448 17.655,512 494.345,512 494.345,79.448 "/>
<polygon style="fill:#ED8A19;" points="317.793,0 0,0 0,88.276 317.793,88.276 512,88.276 512,0 "/>
<polygon style="fill:#F7E6A1;" points="194.207,0 194.207,88.276 194.207,176.552 256,141.241 317.793,176.552 317.793,88.276 
	317.793,0 "/>
<g>
	<polygon style="fill:#FFFFFF;" points="308.966,282.483 308.966,397.241 361.931,397.241 361.931,282.483 397.241,282.483 
		335.448,220.69 273.655,282.483 	"/>
	<polygon style="fill:#FFFFFF;" points="150.069,282.483 150.069,397.241 203.034,397.241 203.034,282.483 238.345,282.483 
		176.552,220.69 114.759,282.483 	"/>
</g>
<g>
	<path style="fill:#C5411E;" d="M397.241,441.379h-291.31c-4.873,0-8.828-3.955-8.828-8.828s3.955-8.828,8.828-8.828h291.31
		c4.873,0,8.828,3.955,8.828,8.828S402.114,441.379,397.241,441.379z"/>
	<path style="fill:#C5411E;" d="M97.103,132.414H52.966c-4.873,0-8.828-3.955-8.828-8.828s3.955-8.828,8.828-8.828h44.138
		c4.873,0,8.828,3.955,8.828,8.828S101.976,132.414,97.103,132.414z"/>
	<path style="fill:#C5411E;" d="M150.069,132.414h-17.655c-4.873,0-8.828-3.955-8.828-8.828s3.955-8.828,8.828-8.828h17.655
		c4.873,0,8.828,3.955,8.828,8.828S154.942,132.414,150.069,132.414z"/>
	<path style="fill:#C5411E;" d="M406.069,485.517h-44.138c-4.873,0-8.828-3.955-8.828-8.828c0-4.873,3.955-8.828,8.828-8.828h44.138
		c4.873,0,8.828,3.955,8.828,8.828C414.897,481.562,410.942,485.517,406.069,485.517z"/>
	<path style="fill:#C5411E;" d="M459.034,485.517h-17.655c-4.873,0-8.828-3.955-8.828-8.828c0-4.873,3.955-8.828,8.828-8.828h17.655
		c4.873,0,8.828,3.955,8.828,8.828C467.862,481.562,463.907,485.517,459.034,485.517z"/>
</g>
<g>
</g>
<g>
</g>
<g>
</g>
<g>
</g>
<g>
</g>
<g>
</g>
<g>
</g>
<g>
</g>
<g>
</g>
<g>
</g>
<g>
</g>
<g>
</g>
<g>
</g>
<g>
</g>
<g>
</g>
</svg>
